<svg xmlns="http://www.w3.org/2000/svg" width="123.725" height="125" viewBox="0 0 123.725 125"><g transform="translate(-2.612)"><path d="M126.337,67.086A61.862,61.862,0,1,1,64.474,5.224,61.856,61.856,0,0,1,126.337,67.086Z" transform="translate(0 -3.949)" fill="#61db78"/><path d="M146.342,131.392v64.077a62.045,62.045,0,0,1-28.277,24.01H70a62.024,62.024,0,0,1-28.29-24.01V131.392Z" transform="translate(-29.55 -99.314)" fill="#ffc887"/><path d="M124.777,38.188H5.788c-1.678,0-2.678-2.105-1.754-3.681L23.663,1.064A2.053,2.053,0,0,1,25.417,0h80.129a2.054,2.054,0,0,1,1.764,1.082L125.4,32.544l1.138,1.981C127.45,36.1,126.445,38.188,124.777,38.188Z" transform="translate(-0.808)" fill="#965028"/><g transform="translate(21.312)"><path d="M182.49,32.544H81.314c-1.678,0-2.681-2.105-1.754-3.681L96.5,0h66.134A2.054,2.054,0,0,1,164.4,1.082Z" transform="translate(-79.207)" fill="#aa6432"/><path d="M229.426,324.473v31.62H204.069v-31.62A12.678,12.678,0,0,1,216.747,311.8a12.364,12.364,0,0,1,1.545.094A12.679,12.679,0,0,1,229.426,324.473Z" transform="translate(-173.585 -235.673)" fill="#aa6432"/></g><path d="M238.987,324.765v31.62H216.718v-31.62a12.679,12.679,0,0,1,11.136-12.584A12.679,12.679,0,0,1,238.987,324.765Z" transform="translate(-161.834 -235.965)" fill="#b9783d"/><path d="M182.328,467.17a61.79,61.79,0,0,1-70.307,0Z" transform="translate(-82.698 -353.115)" fill="#d29650"/><path d="M228.652,199.708a13.036,13.036,0,1,1-9.863-12.656A13.054,13.054,0,0,1,228.652,199.708Z" transform="translate(-151.13 -141.089)" fill="#afebd2"/><path d="M248.373,200.922a13.054,13.054,0,0,1-9.863,12.656,13.051,13.051,0,0,1,0-25.311A13.053,13.053,0,0,1,248.373,200.922Z" transform="translate(-170.851 -142.303)" fill="#d2fae6"/><path d="M209.693,178.839A14.957,14.957,0,1,0,224.65,193.8,14.974,14.974,0,0,0,209.693,178.839Zm-2.672,25.768a11.173,11.173,0,0,1-8.138-8.138.62.62,0,0,1,.605-.763h7.676a.62.62,0,0,1,.62.62V204A.62.62,0,0,1,207.021,204.607Zm.143-12.72h-7.676a.62.62,0,0,1-.605-.763,11.173,11.173,0,0,1,8.138-8.138.62.62,0,0,1,.763.605v7.676A.62.62,0,0,1,207.163,191.887Zm5.2-8.9a11.173,11.173,0,0,1,8.138,8.138.62.62,0,0,1-.605.763h-7.676a.62.62,0,0,1-.62-.62V183.59A.62.62,0,0,1,212.365,182.985ZM211.6,204v-7.676a.62.62,0,0,1,.62-.62H219.9a.62.62,0,0,1,.605.763,11.173,11.173,0,0,1-8.138,8.138A.62.62,0,0,1,211.6,204Z" transform="translate(-145.219 -135.177)" fill="#aa6432"/><circle cx="2.079" cy="2.079" r="2.079" transform="translate(56.027 94.112)" fill="#80391b"/><path d="M369.408,184.793v21.958h-19.73V184.793a9.865,9.865,0,1,1,19.73,0Z" transform="translate(-262.333 -132.221)" fill="#afebd2"/><path d="M378.607,185.14V207.1h-16.76V185.14a8.476,8.476,0,1,1,16.76,0Z" transform="translate(-271.531 -132.568)" fill="#d2fae6"/><path d="M364.124,301.383a2.809,2.809,0,0,1-2.8,2.8H342.145a2.8,2.8,0,0,1,0-5.6h19.178a2.807,2.807,0,0,1,2.8,2.8Z" transform="translate(-254.523 -225.687)" fill="#b9783d"/><path d="M381.133,301.383a2.809,2.809,0,0,1-2.8,2.8H364.648a2.8,2.8,0,0,1,0-5.6h13.684a2.807,2.807,0,0,1,2.8,2.8Z" transform="translate(-271.532 -225.687)" fill="#d29650"/><g transform="translate(88.613 47.992)"><path d="M370.53,197.065a1.91,1.91,0,0,0-2.7.138l-11.759,13.024a1.909,1.909,0,1,0,2.834,2.559l11.759-13.024A1.909,1.909,0,0,0,370.53,197.065Z" transform="translate(-355.409 -196.573)" fill="#96e1be"/><path d="M396.024,240.163a1.909,1.909,0,0,0-2.7.159l-5.433,6.116a1.909,1.909,0,1,0,2.855,2.536l5.433-6.116A1.91,1.91,0,0,0,396.024,240.163Z" transform="translate(-379.468 -229.156)" fill="#96e1be"/><path d="M355.514,209.743a1.909,1.909,0,0,0,2.7-.159l1.6-1.8a1.909,1.909,0,1,0-2.855-2.536l-1.6,1.8A1.91,1.91,0,0,0,355.514,209.743Z" transform="translate(-354.872 -202.648)" fill="#96e1be"/></g><g transform="translate(4.616)"><rect width="3.819" height="38.188" transform="translate(57.95)" fill="#80391b"/><path d="M144.192,0l-9.547,38.188h-3.936L140.256,0Z" transform="translate(-101.439)" fill="#80391b"/><path d="M36,0,15.152,38.188H11.183a1.894,1.894,0,0,1-.364-.036L31.647,0Z" transform="translate(-10.819)" fill="#80391b"/><path d="M340.385,38.188h-3.938L326.9,0h3.936Z" transform="translate(-249.731)" fill="#80391b"/><path d="M424.036,38.112a1.981,1.981,0,0,1-.542.076h-3.765L398.883,0h4.351Z" transform="translate(-304.141)" fill="#80391b"/><path d="M154.6,37.79a18.641,18.641,0,0,1-5.6.749,18.933,18.933,0,0,1-5.912-.835,17.457,17.457,0,0,0-9.735,0,21.335,21.335,0,0,1-11.821,0,17.457,17.457,0,0,0-9.735,0,21.326,21.326,0,0,1-11.818,0,17.457,17.457,0,0,0-9.735,0,21.326,21.326,0,0,1-11.818,0,17.457,17.457,0,0,0-9.735,0,18.925,18.925,0,0,1-5.909.835,18.586,18.586,0,0,1-5.377-.687l2.016-3.434a15.7,15.7,0,0,0,3.361.3,15.117,15.117,0,0,0,4.868-.69,21.26,21.26,0,0,1,11.818,0,17.516,17.516,0,0,0,9.735,0,21.26,21.26,0,0,1,11.818,0,17.516,17.516,0,0,0,9.735,0,21.26,21.26,0,0,1,11.818,0,17.526,17.526,0,0,0,9.738,0,21.26,21.26,0,0,1,11.818,0,15.134,15.134,0,0,0,4.87.69,15.3,15.3,0,0,0,3.625-.362Z" transform="translate(-46.029 -25.088)" fill="#80391b"/><path d="M137.257,94.9a24.72,24.72,0,0,1-6.064.644,24.975,24.975,0,0,1-6.787-.817,24.788,24.788,0,0,0-11.782,0,28.586,28.586,0,0,1-13.572,0,24.788,24.788,0,0,0-11.782,0,24.964,24.964,0,0,1-6.787.817,24.935,24.935,0,0,1-6.785-.817,21.5,21.5,0,0,0-5.891-.71,21.486,21.486,0,0,0-5.891.71,24.964,24.964,0,0,1-6.787.817,24.935,24.935,0,0,1-6.785-.817,21.5,21.5,0,0,0-5.891-.71,21.488,21.488,0,0,0-5.891.71,24.964,24.964,0,0,1-6.787.817,24.577,24.577,0,0,1-5.98-.626l2.044-3.483a22.91,22.91,0,0,0,3.936.29,21.486,21.486,0,0,0,5.891-.71,24.964,24.964,0,0,1,6.787-.817,24.935,24.935,0,0,1,6.785.817,21.517,21.517,0,0,0,5.891.71,21.486,21.486,0,0,0,5.891-.71,24.964,24.964,0,0,1,6.787-.817,24.935,24.935,0,0,1,6.785.817,24.788,24.788,0,0,0,11.782,0,28.586,28.586,0,0,1,13.572,0,24.788,24.788,0,0,0,11.782,0,28.6,28.6,0,0,1,13.575,0,21.489,21.489,0,0,0,5.891.71,22.471,22.471,0,0,0,4.058-.313Z" transform="translate(-20.626 -68.181)" fill="#80391b"/></g><path d="M101.228,184.793v21.958H81.5V184.793a9.865,9.865,0,1,1,19.731,0Z" transform="translate(-59.626 -132.221)" fill="#afebd2"/><path d="M110.427,185.14V207.1H93.667V185.14a9.9,9.9,0,0,1,8.381-9.753A9.9,9.9,0,0,1,110.427,185.14Z" transform="translate(-68.825 -132.568)" fill="#d2fae6"/><path d="M95.943,301.383a2.809,2.809,0,0,1-2.8,2.8H73.964a2.8,2.8,0,0,1,0-5.6H93.143a2.807,2.807,0,0,1,2.8,2.8Z" transform="translate(-51.816 -225.687)" fill="#b9783d"/><path d="M112.952,301.383a2.809,2.809,0,0,1-2.8,2.8H96.467a2.8,2.8,0,0,1,0-5.6h13.684a2.807,2.807,0,0,1,2.8,2.8Z" transform="translate(-68.825 -225.687)" fill="#d29650"/><g transform="translate(23.139 47.992)"><path d="M102.349,197.065a1.909,1.909,0,0,0-2.7.138L87.894,210.227a1.909,1.909,0,1,0,2.834,2.559l11.759-13.024A1.909,1.909,0,0,0,102.349,197.065Z" transform="translate(-87.228 -196.573)" fill="#96e1be"/><path d="M127.843,240.163a1.909,1.909,0,0,0-2.7.159l-5.433,6.116a1.909,1.909,0,1,0,2.855,2.536L128,242.858A1.909,1.909,0,0,0,127.843,240.163Z" transform="translate(-111.287 -229.156)" fill="#96e1be"/><path d="M87.333,209.743a1.909,1.909,0,0,0,2.7-.159l1.6-1.8a1.909,1.909,0,0,0-2.855-2.536l-1.6,1.8A1.91,1.91,0,0,0,87.333,209.743Z" transform="translate(-86.691 -202.648)" fill="#96e1be"/></g><path d="M95.943,348.1v3.969A2.949,2.949,0,0,1,93,355.009H74.1a2.947,2.947,0,0,1-2.935-2.938V348.1a2.945,2.945,0,0,1,2.935-2.938H93.005A2.947,2.947,0,0,1,95.943,348.1Z" transform="translate(-51.816 -260.895)" fill="#afebd2"/><path d="M112.952,348.1v3.969a2.949,2.949,0,0,1-2.938,2.938H96.6a2.947,2.947,0,0,1-2.935-2.938V348.1a2.945,2.945,0,0,1,2.935-2.938h13.412A2.947,2.947,0,0,1,112.952,348.1Z" transform="translate(-68.825 -260.895)" fill="#d2fae6"/><path d="M87.093,337.343H68.188a4.852,4.852,0,0,0-4.845,4.847v3.969a4.852,4.852,0,0,0,4.845,4.847H87.093a4.853,4.853,0,0,0,4.847-4.847V342.19A4.853,4.853,0,0,0,87.093,337.343Zm-19.932,8.816V342.19a1.041,1.041,0,0,1,1.026-1.029h7.545v6.026H68.188A1.041,1.041,0,0,1,67.162,346.159Zm20.96,0a1.042,1.042,0,0,1-1.029,1.029H79.551v-6.026h7.542a1.042,1.042,0,0,1,1.029,1.029Z" transform="translate(-45.904 -254.984)" fill="#aa6432"/><path d="M364.123,348.1v3.969a2.949,2.949,0,0,1-2.938,2.938H342.279a2.947,2.947,0,0,1-2.935-2.938V348.1a2.945,2.945,0,0,1,2.935-2.938h18.906A2.947,2.947,0,0,1,364.123,348.1Z" transform="translate(-254.522 -260.895)" fill="#afebd2"/><path d="M381.133,348.1v3.969a2.949,2.949,0,0,1-2.938,2.938H364.783a2.947,2.947,0,0,1-2.935-2.938V348.1a2.945,2.945,0,0,1,2.935-2.938h13.412A2.947,2.947,0,0,1,381.133,348.1Z" transform="translate(-271.532 -260.895)" fill="#d2fae6"/><path d="M355.273,337.343H336.368a4.852,4.852,0,0,0-4.845,4.847v3.969a4.852,4.852,0,0,0,4.845,4.847h18.906a4.853,4.853,0,0,0,4.847-4.847V342.19A4.853,4.853,0,0,0,355.273,337.343Zm-19.932,8.816V342.19a1.041,1.041,0,0,1,1.026-1.029h7.545v6.026h-7.545A1.041,1.041,0,0,1,335.342,346.159Zm20.96,0a1.042,1.042,0,0,1-1.029,1.029h-7.542v-6.026h7.542a1.042,1.042,0,0,1,1.029,1.029Z" transform="translate(-248.61 -254.984)" fill="#aa6432"/></g></svg>