<svg xmlns="http://www.w3.org/2000/svg" width="121.737" height="123" viewBox="0 0 121.737 123"><g transform="translate(-2.628)"><path d="M2.628,134.63c0,.148.005.3.007.445H2.628Z" transform="translate(0 -102.287)" fill="#c2dff6"/><path d="M124.923,71.46A60.14,60.14,0,1,1,64.782,11.32,60.134,60.134,0,0,1,124.923,71.46Z" transform="translate(-1.53 -8.601)" fill="#61db78"/><path d="M4.642,38.129v72.389c0,.082,0,.163,0,.245a9.462,9.462,0,0,0,9.18,9.21l.275,0,104.272-.007a7.525,7.525,0,0,0,7.524-7.525V45.654a7.525,7.525,0,0,0-7.525-7.525Z" transform="translate(-1.53 -28.969)" fill="#ebe1dc"/><path d="M30.819,4.8V67.793a4.8,4.8,0,0,1-4.8,4.8H13.744a9.2,9.2,0,0,0-9.1,7.989h0V9.5H4.65c0-.092-.007-.183-.007-.275V9.1a9.127,9.127,0,0,1,9.1-9.1H26.02A4.8,4.8,0,0,1,30.819,4.8Z" transform="translate(-1.531)" fill="#c8beb9"/><path d="M13.823,0V72.592h-.079a9.2,9.2,0,0,0-9.1,7.989h0V9.5H4.65c0-.092-.007-.183-.007-.275V9.1a9.128,9.128,0,0,1,9.1-9.1Z" transform="translate(-1.531)" fill="#b4aaaa"/><path d="M113.251,102.173l-11.044,81.341a60.116,60.116,0,0,1-11.838-8.083l10.182-74.983a5.225,5.225,0,0,1,.3-1.2,5.339,5.339,0,0,1,.661-1.228l3.7-5.17,2.955-4.121a.484.484,0,0,1,.851.114l1.752,4.767,2.19,5.96a5.317,5.317,0,0,1,.312,1.364c0,.03.005.059.005.089A5.4,5.4,0,0,1,113.251,102.173Z" transform="translate(-66.663 -67.259)" fill="#ffc396"/><path d="M157.728,93.619a4.277,4.277,0,0,1-5.558-.758l2.954-4.124a.486.486,0,0,1,.851.115Z" transform="translate(-113.617 -67.265)" fill="#6da0e8"/><path d="M113.241,136.111,102.2,217.447a60.22,60.22,0,0,1-11.838-8.083l10.182-74.978a5.225,5.225,0,0,1,.3-1.2l5.037.683,7.386,1c0,.03.005.059.005.089A5.412,5.412,0,0,1,113.241,136.111Z" transform="translate(-66.655 -101.192)" fill="#6e96dc"/><g transform="translate(28.466 13.105)"><path d="M128.3,138.251,117.26,219.594a60.133,60.133,0,0,1-7.079-4.33l10.764-79.252,7.386,1c0,.03.005.059.005.089A5.425,5.425,0,0,1,128.3,138.251Z" transform="translate(-110.181 -116.441)" fill="#6da0e8"/><path d="M269,74.6l-10.823-18.82a2.4,2.4,0,0,0-2.067-1.23H211.013a2.374,2.374,0,0,0-2.054,1.21l-11.048,18.82a2.7,2.7,0,0,0-.012,2.705,2.373,2.373,0,0,0,2.067,1.233h2.8v40.454a4.676,4.676,0,0,0,1.455,9.12h58.455a4.676,4.676,0,0,0,1.453-9.12V78.517h2.8a2.38,2.38,0,0,0,2.064-1.223A2.706,2.706,0,0,0,269,74.6ZM262.92,69c-4.729.368-6.376-1.757-12.184-.356-.2.047-.392.094-.6.138l-1.477-5.908a8.392,8.392,0,0,1,2.685-.374c2.792,0,2.878.86,6.066.86a11.385,11.385,0,0,0,2.158-.182ZM233.449,97.389a8.382,8.382,0,0,0-8.373,8.373v12.977H205.242V78.517h56.413v40.221H241.822V105.762A8.376,8.376,0,0,0,233.449,97.389Zm5.9,8.373v12.976h-11.8V105.762a5.9,5.9,0,0,1,11.8,0Zm-19.1-29.72,1.264-5.055a17.809,17.809,0,0,1,4.509-.658c3.634,0,3.541,1,7.843.848v4.865H220.243Zm35.793-19.018,2.381,4.142c-3.525.313-3.553-.819-7.07-.819a10.539,10.539,0,0,0-3.206.437l-.94-3.761h8.835Zm-20.027,0h8.977l1.04,4.162a9.327,9.327,0,0,1-3.485-.367,11.756,11.756,0,0,0-6.532-.034V57.024Zm0,5.99c5.22-1.369,5.255.341,9.273.341.485,0,.9-.022,1.272-.057l1.433,5.733c-4.788.147-5.19-1.818-11.978-.284V63.014Zm0,7.93a15.926,15.926,0,0,1,4.277-.615c3.658,0,3.779,1.083,8.233.83l1.221,4.883H236.009v-5.1ZM225,57.024h8.862v4.164a9.3,9.3,0,0,1-3.449-.369,11.858,11.858,0,0,0-6.34-.087Zm4.827,5.862a11.246,11.246,0,0,0,4.035.453v5.687c-3.942.156-3.911-.846-7.843-.846a14.32,14.32,0,0,0-3.929.486l1.389-5.554A10.6,10.6,0,0,1,229.825,62.886Zm-18.738-5.862h11.7l-1.041,4.163c-3.337.193-3.4-.84-6.787-.84-3.252,0-3.276.91-6.322.857Zm-3.67,6.253c4.8.555,5.694-1.693,10.278-.391a10.794,10.794,0,0,0,3.505.468l-1.416,5.663c-4.015.211-4.078-.837-8.037-.837-3.875,0-3.855.97-7.707.851Zm-7.378,12.765a.229.229,0,0,1,.007-.208l2.776-4.73c4.557.479,5.336-.775,8.925-.775,3.406,0,3.53.922,7.5.857l-1.214,4.856Zm64.838,47.374a2.2,2.2,0,0,1-2.2,2.2H204.222a2.2,2.2,0,0,1,0-4.4h58.455a2.207,2.207,0,0,1,2.2,2.2Zm1.982-47.374h-14.9l-1.295-5.178c7.11-1.58,7.479,1.082,13.425.161l2.765,4.809A.229.229,0,0,1,266.859,76.042Z" transform="translate(-176.554 -54.549)" fill="#6da0e8"/><path d="M320.387,161.793a8.418,8.418,0,1,0,8.418,8.418A8.427,8.427,0,0,0,320.387,161.793Zm-1.075,14.162a.349.349,0,0,1-.429.341,6.288,6.288,0,0,1-4.58-4.58.349.349,0,0,1,.341-.429h4.32a.349.349,0,0,1,.349.349v4.32Zm0-7.167a.349.349,0,0,1-.349.349h-4.32a.349.349,0,0,1-.341-.429,6.289,6.289,0,0,1,4.58-4.58.349.349,0,0,1,.429.341v4.32Zm2.149-4.32a.349.349,0,0,1,.429-.341,6.288,6.288,0,0,1,4.58,4.58.349.349,0,0,1-.341.429h-4.32a.349.349,0,0,1-.349-.349v-4.32Zm5.01,7.248a6.289,6.289,0,0,1-4.58,4.58.349.349,0,0,1-.429-.341v-4.32a.349.349,0,0,1,.349-.349h4.32A.349.349,0,0,1,326.471,171.715Z" transform="translate(-263.493 -136.029)" fill="#6da0e8"/><circle cx="1.17" cy="1.17" r="1.17" transform="translate(52.14 54.204)" fill="#6da0e8"/><path d="M398.546,180.906H405.9a3.114,3.114,0,0,0,3.11-3.11V167.311a6.79,6.79,0,0,0-13.579,0V177.8A3.115,3.115,0,0,0,398.546,180.906Zm-.636-13.6a4.315,4.315,0,1,1,8.629,0V177.8a.636.636,0,0,1-.635.635h-7.358a.636.636,0,0,1-.636-.635V167.311Z" transform="translate(-326.907 -135.063)" fill="#6da0e8"/><path d="M245.16,180.906h7.358a3.114,3.114,0,0,0,3.11-3.11V167.311a6.79,6.79,0,0,0-13.579,0V177.8A3.115,3.115,0,0,0,245.16,180.906Zm-.635-13.6a4.315,4.315,0,1,1,8.629,0V177.8a.636.636,0,0,1-.635.635H245.16a.636.636,0,0,1-.635-.635V167.311Z" transform="translate(-210.37 -135.063)" fill="#6da0e8"/><path d="M250.186,252.641h-10.64a2.73,2.73,0,0,0-2.727,2.728V257.6a2.73,2.73,0,0,0,2.727,2.728h10.64a2.731,2.731,0,0,0,2.728-2.728v-2.234A2.731,2.731,0,0,0,250.186,252.641Zm-6.394,5.541h-4.246a.586.586,0,0,1-.578-.579v-2.234a.586.586,0,0,1,.578-.579h4.246Zm6.973-.579a.587.587,0,0,1-.579.579h-4.245V254.79h4.245a.587.587,0,0,1,.579.579Z" transform="translate(-206.396 -205.052)" fill="#6da0e8"/><path d="M392.931,260.332h10.64A2.731,2.731,0,0,0,406.3,257.6v-2.234a2.731,2.731,0,0,0-2.728-2.728h-10.64a2.73,2.73,0,0,0-2.727,2.728V257.6A2.73,2.73,0,0,0,392.931,260.332Zm6.4-5.541h4.245a.587.587,0,0,1,.579.579V257.6a.587.587,0,0,1-.579.579h-4.245Zm-6.973.579a.586.586,0,0,1,.578-.579h4.246v3.391h-4.246a.586.586,0,0,1-.578-.579Z" transform="translate(-322.933 -205.054)" fill="#6da0e8"/></g></g></svg>