<svg xmlns="http://www.w3.org/2000/svg" width="126.805" height="126.411" viewBox="0 0 126.805 126.411"><g transform="translate(0 -0.795)"><path d="M125.155,68.444A62.578,62.578,0,1,1,62.577,5.866,62.571,62.571,0,0,1,125.155,68.444Z" transform="translate(0 -3.815)" fill="#61db78"/><g transform="translate(9.406 1.339)"><path d="M40.485,215.437a2.506,2.506,0,0,0-2.506,2.506V255.53a2.506,2.506,0,0,0,5.012,0V217.943A2.506,2.506,0,0,0,40.485,215.437Z" transform="translate(-37.979 -162.821)" fill="#aa6432"/><path d="M120.921,168.256a2.506,2.506,0,0,0-2.506,2.506v49.273a2.506,2.506,0,1,0,5.012,0V170.762A2.506,2.506,0,0,0,120.921,168.256Z" transform="translate(-98.494 -127.325)" fill="#aa6432"/><path d="M201.358,127.413a2.506,2.506,0,0,0-2.506,2.506v59.388a2.506,2.506,0,0,0,5.012,0V129.919A2.506,2.506,0,0,0,201.358,127.413Z" transform="translate(-159.009 -96.598)" fill="#aa6432"/><path d="M281.794,78.708a2.506,2.506,0,0,0-2.506,2.506v71.45a2.506,2.506,0,1,0,5.012,0V81.214A2.506,2.506,0,0,0,281.794,78.708Z" transform="translate(-219.524 -59.955)" fill="#aa6432"/><path d="M362.231,36.212a2.506,2.506,0,0,0-2.506,2.506v81.975a2.506,2.506,0,1,0,5.012,0V38.718A2.506,2.506,0,0,0,362.231,36.212Z" transform="translate(-280.04 -27.984)" fill="#aa6432"/><path d="M442.667,2.99A2.506,2.506,0,0,0,440.161,5.5V95.7a2.506,2.506,0,0,0,5.012,0V5.5A2.506,2.506,0,0,0,442.667,2.99Z" transform="translate(-340.555 -2.99)" fill="#aa6432"/></g><path d="M144.627,174.805a62.584,62.584,0,0,1-118.745,27.61,1.1,1.1,0,0,1,.59-.17H44.264a1.125,1.125,0,0,0,1.128-1.125v-8.828a1.124,1.124,0,0,1,1.128-1.125H64.313a1.126,1.126,0,0,0,1.125-1.128V181.32a1.126,1.126,0,0,1,1.128-1.125H84.359a1.128,1.128,0,0,0,1.128-1.128v-8.645a1.125,1.125,0,0,1,1.128-1.128h17.793a1.126,1.126,0,0,0,1.125-1.128v-8.772a1.128,1.128,0,0,1,1.128-1.128h17.793a1.126,1.126,0,0,0,1.128-1.128v-8.769a1.126,1.126,0,0,1,1.128-1.128h11.532A62.325,62.325,0,0,1,144.627,174.805Z" transform="translate(-19.472 -110.177)" fill="#69280f"/><g transform="translate(3.366 0.795)"><path d="M136.607,147.243v16.214A43.273,43.273,0,0,1,93.333,206.73H28.225q-1.259-2.105-2.344-4.314v0a1.118,1.118,0,0,1,.59-.167h17.8a1.126,1.126,0,0,0,1.125-1.125v-8.828a1.126,1.126,0,0,1,1.125-1.125h17.8a1.126,1.126,0,0,0,1.125-1.125v-8.72a1.126,1.126,0,0,1,1.125-1.125h17.8a1.128,1.128,0,0,0,1.128-1.128v-8.645a1.128,1.128,0,0,1,1.128-1.128h17.793a1.125,1.125,0,0,0,1.125-1.125V159.4a1.128,1.128,0,0,1,1.128-1.128h17.793a1.128,1.128,0,0,0,1.128-1.128v-8.769a1.126,1.126,0,0,1,1.128-1.128Z" transform="translate(-22.837 -110.973)" fill="#80391b"/><path d="M16.1,60.814a2.506,2.506,0,0,1-1.208-4.7L111.272,3.222A19.733,19.733,0,0,1,120.738.795h13.786a2.506,2.506,0,1,1,0,5.012H120.738a14.7,14.7,0,0,0-7.055,1.809L17.3,60.5A2.5,2.5,0,0,1,16.1,60.814Z" transform="translate(-13.592 -0.795)" fill="#80391b"/></g><path d="M297.138,332.991q.439.977.857,2.008.364.9.707,1.845s-21.649-6.892-26.971-23.484a2.047,2.047,0,0,1,2.207-2.666,3.2,3.2,0,0,1,.69.2C280.15,312.859,290.546,318.362,297.138,332.991Z" transform="translate(-204.356 -233.133)" fill="#147d73"/><path d="M306.248,333.649q.439.977.857,2.008c-8.129-4.231-19.337-12.013-23.367-24.108C289.26,313.517,299.656,319.02,306.248,333.649Z" transform="translate(-213.466 -233.791)" fill="#1e9682"/><path d="M321.827,359.258a1.068,1.068,0,0,1-1.511.023l-22.8-22.116A1.068,1.068,0,1,1,299,335.632l22.8,22.116A1.068,1.068,0,0,1,321.827,359.258Z" transform="translate(-223.586 -251.683)" fill="#2d5a5f"/><path d="M324.381,277.969q.016,1.313-.019,2.675-.031,1.191-.107,2.418s-20.954-18.326-18.822-39.569a2.508,2.508,0,0,1,3.783-1.916,3.951,3.951,0,0,1,.679.558C315.136,247.046,324.126,258.31,324.381,277.969Z" transform="translate(-229.673 -180.878)" fill="#5ac3a5"/><path d="M337.955,280.758q.016,1.313-.019,2.675c-7.065-8.727-15.852-22.95-14.468-38.508C328.711,249.835,337.7,261.1,337.955,280.758Z" transform="translate(-243.248 -183.667)" fill="#82d2af"/><path d="M341.463,318.4a1.309,1.309,0,0,1-1.708-.713L324.947,281.7a1.309,1.309,0,0,1,2.421-1l14.808,35.994A1.309,1.309,0,0,1,341.463,318.4Z" transform="translate(-244.395 -209.973)" fill="#3caf96"/><path d="M376.14,332.991q-.439.977-.857,2.008-.364.9-.707,1.845s21.649-6.892,26.971-23.484a2.047,2.047,0,0,0-2.207-2.666,3.2,3.2,0,0,0-.69.2C393.128,312.859,382.732,318.362,376.14,332.991Z" transform="translate(-281.807 -233.133)" fill="#147d73"/><path d="M378.288,333.649q-.439.977-.857,2.008c8.129-4.231,19.337-12.013,23.367-24.108C395.276,313.517,384.88,319.02,378.288,333.649Z" transform="translate(-283.955 -233.791)" fill="#1e9682"/><path d="M357.932,359.258a1.068,1.068,0,0,0,1.511.023l22.8-22.116a1.068,1.068,0,1,0-1.487-1.534l-22.8,22.116A1.068,1.068,0,0,0,357.932,359.258Z" transform="translate(-269.059 -251.683)" fill="#2d5a5f"/><path d="M383.127,277.969q-.016,1.313.019,2.675.031,1.191.107,2.418s20.954-18.326,18.822-39.569a2.508,2.508,0,0,0-3.783-1.916,3.951,3.951,0,0,0-.679.558C392.371,247.046,383.382,258.31,383.127,277.969Z" transform="translate(-288.236 -180.878)" fill="#82d2af"/><path d="M383.127,280.758q-.016,1.313.019,2.675c7.065-8.727,15.852-22.95,14.468-38.508C392.371,249.835,383.382,261.1,383.127,280.758Z" transform="translate(-288.236 -183.667)" fill="#5ac3a5"/><path d="M371.147,318.4a1.309,1.309,0,0,0,1.708-.713L387.663,281.7a1.309,1.309,0,1,0-2.421-1l-14.808,35.994A1.309,1.309,0,0,0,371.147,318.4Z" transform="translate(-278.617 -209.973)" fill="#3caf96"/><path d="M362.435,256.334q-.5,1.269-1.076,2.565-.5,1.133-1.06,2.283s-12.9-25.913-2.446-45.5a2.608,2.608,0,0,1,4.4-.347,4.09,4.09,0,0,1,.432.806C365.777,222.939,369.966,237.328,362.435,256.334Z" transform="translate(-266.15 -160.621)" fill="#147d73"/><path d="M375.115,261.958q-.5,1.269-1.076,2.565c-3.341-11.187-6.165-28.341,1.321-42.756C378.458,228.564,382.647,242.952,375.115,261.958Z" transform="translate(-278.831 -166.245)" fill="#1e9682"/><path d="M376.16,290.754a1.206,1.206,0,0,1-1.205-1.205V253.707a1.205,1.205,0,1,1,2.411,0v35.841A1.206,1.206,0,0,1,376.16,290.754Z" transform="translate(-282.092 -189.368)" fill="#2d5a5f"/><path d="M341.252,405.466v4.427A62.549,62.549,0,0,1,316.825,427.3a61.8,61.8,0,0,1-6.655,2.2,16.867,16.867,0,0,1-2.8-9.338v-14.7Z" transform="translate(-231.242 -304.448)" fill="#5f82c3"/><path d="M365.2,405.466v4.427A62.549,62.549,0,0,1,340.771,427.3a16.814,16.814,0,0,1-1.576-7.134v-14.7Z" transform="translate(-255.188 -304.448)" fill="#6e96dc"/><path d="M327.913,387.188a62.3,62.3,0,0,1-5.006,6.667l-.052.059H287.862a4.883,4.883,0,0,1,0-9.765H323.4A4.9,4.9,0,0,1,327.913,387.188Z" transform="translate(-212.897 -288.411)" fill="#82aaf0"/><path d="M351.524,387.369H318.861a4.9,4.9,0,0,1-4.588-3.217h32.664A4.9,4.9,0,0,1,351.524,387.369Z" transform="translate(-236.439 -288.413)" fill="#91b9ff"/></g></svg>