<svg xmlns="http://www.w3.org/2000/svg" width="130" height="26.544" viewBox="0 0 130 26.544"><g transform="translate(-5.45 -199.65)"><path d="M5.45,201.715a.7.7,0,0,1,.695-.695H17.078a7.814,7.814,0,0,1,2.561,15.249l5.01,9.288a.691.691,0,0,1-.62,1.06H19.165a.68.68,0,0,1-.586-.327l-4.864-9.69H11.192v9.325a.719.719,0,0,1-.695.695H6.145a.693.693,0,0,1-.695-.695ZM16.6,211.953a2.933,2.933,0,0,0,2.779-2.926,2.8,2.8,0,0,0-2.779-2.779H11.192v5.7Z" transform="translate(0 -1.005)" fill="#010101"/><path d="M86.5,201.715a.7.7,0,0,1,.695-.695h15.139a.7.7,0,0,1,.695.695V205.7a.7.7,0,0,1-.695.695H92.2v4.534h8.338a.719.719,0,0,1,.695.695v3.985a.693.693,0,0,1-.695.695H92.2v4.936h10.129a.7.7,0,0,1,.695.695v3.985a.7.7,0,0,1-.695.695H87.195a.7.7,0,0,1-.695-.695Z" transform="translate(-59.474 -1.005)" fill="#010101"/><path d="M155.87,200.308a.688.688,0,0,1,.695-.658h.913l14.591,14.043h.037V200.71a.7.7,0,0,1,.695-.695h4.387a.721.721,0,0,1,.695.695v24.611a.688.688,0,0,1-.695.658H176.6a1.076,1.076,0,0,1-.477-.184l-14.445-14.519h-.037v13.641a.7.7,0,0,1-.695.695H156.6a.721.721,0,0,1-.695-.695Z" transform="translate(-110.377)" fill="#010101"/><path d="M339.089,201.97a.645.645,0,0,1,.62-.95h4.864a.719.719,0,0,1,.623.4l6.035,13.348h.218l6.035-13.348a.711.711,0,0,1,.62-.4h4.864a.647.647,0,0,1,.623.95l-11.482,24.611a.7.7,0,0,1-.623.4h-.365a.7.7,0,0,1-.62-.4Z" transform="translate(-244.767 -1.005)" fill="#010101"/><path d="M401.27,224.663l11.447-24.611a.738.738,0,0,1,.623-.4h.365a.75.75,0,0,1,.623.4l11.444,24.611a.645.645,0,0,1-.623.95h-4.06c-.658,0-.95-.218-1.28-.913l-1.318-2.888h-9.946l-1.315,2.926a1.364,1.364,0,0,1-1.318.879H401.89a.649.649,0,0,1-.62-.953m15.03-7.827-2.779-6.035h-.037l-2.742,6.035Z" transform="translate(-290.395)" fill="#010101"/><path d="M273.158,215.234l-.242-.248-2.556-2.614-2.947-3.016a.723.723,0,0,0-1.03,0l-2.119,2.17-3.381,3.458-.242.248a.719.719,0,0,0,.514,1.222h2.675a7.3,7.3,0,1,1,.091-5.929l2.417-2.473a.781.781,0,0,1,1.118,0l2.689,2.753a13.2,13.2,0,1,0-.107,5.649h2.6a.718.718,0,0,0,.519-1.219" transform="translate(-175.045 -0.396)" fill="#45b649"/></g></svg>