<svg xmlns="http://www.w3.org/2000/svg" xmlns:xlink="http://www.w3.org/1999/xlink" width="275" height="275" viewBox="0 0 275 275"><defs><filter id="a" x="0" y="0" width="275" height="275" filterUnits="userSpaceOnUse"><feOffset input="SourceAlpha"/><feGaussianBlur stdDeviation="12.5" result="b"/><feFlood flood-opacity="0.161"/><feComposite operator="in" in2="b"/><feComposite in="SourceGraphic"/></filter><filter id="c" x="45.5" y="45.5" width="183" height="183" filterUnits="userSpaceOnUse"><feOffset input="SourceAlpha"/><feGaussianBlur stdDeviation="5" result="d"/><feFlood flood-opacity="0.161"/><feComposite operator="in" in2="d"/><feComposite in="SourceGraphic"/></filter></defs><g transform="translate(-42.5 -2101.5)"><g transform="translate(-26 -160)"><g transform="translate(106 2299)"><g transform="matrix(1, 0, 0, 1, -37.5, -37.5)" filter="url(#a)"><circle cx="100" cy="100" r="100" transform="translate(37.5 37.5)" fill="#44b359"/></g><g transform="matrix(1, 0, 0, 1, -37.5, -37.5)" filter="url(#c)"><circle cx="76.5" cy="76.5" r="76.5" transform="translate(60.5 60.5)" fill="#fafafa"/></g></g></g><g transform="translate(137 2193.196)"><g transform="translate(0 0)"><path d="M85.265,22.117,63.886.737a2.519,2.519,0,0,0-3.563,0L49.3,11.763a2.519,2.519,0,0,0,0,3.563l1.091,1.091L21.551,30.836a2.519,2.519,0,0,0-1.213,1.318L.191,82.523l-.009.022c-.026.065-.048.13-.068.2a2.607,2.607,0,0,0-.1.465,2.5,2.5,0,0,0,.523,1.83l.045.056A2.516,2.516,0,0,0,3,85.955c.065-.012.128-.029.192-.046l.04-.01a2.518,2.518,0,0,0,.251-.088L53.849,65.664a2.519,2.519,0,0,0,1.318-1.213L69.585,35.614l1.091,1.091a2.519,2.519,0,0,0,3.563,0L85.265,25.68A2.52,2.52,0,0,0,85.265,22.117ZM51.088,61.341l-38.1,15.242L34.538,55.027a7.562,7.562,0,1,0-3.563-3.563L9.419,73.02l15.242-38.1L54.144,20.174,65.829,31.858ZM35.276,48.207a2.52,2.52,0,1,1,2.52,2.52A2.522,2.522,0,0,1,35.276,48.207ZM72.458,31.361l-1.814-1.814,0,0L56.46,15.363l-.006-.006-1.813-1.813L62.1,6.083,79.92,23.9Z" transform="translate(-0.003 0)" fill="#44b359"/></g></g></g></svg>