<svg xmlns="http://www.w3.org/2000/svg" width="119.5" height="119.5" viewBox="0 0 119.5 119.5"><path d="M119.5,59.75a59.812,59.812,0,0,1-38.779,55.965A58.815,58.815,0,0,1,73.1,118,59.757,59.757,0,1,1,119.5,59.75Z" fill="#61db78"/><path d="M149.51,46.614a46.662,46.662,0,0,1-30.253,43.661,45.934,45.934,0,0,1-5.946,1.785,46.619,46.619,0,1,1,36.2-45.446Z" transform="translate(-43.147)" fill="#61db78"/><g transform="translate(2.438 4.148)"><path d="M108.979,236.962v62.23A59.6,59.6,0,0,1,84.1,285.682v-48.72Z" transform="translate(-66.912 -185.804)" fill="#535e8a"/><path d="M51.415,17.774v17.87a11.34,11.34,0,0,1-11.34,11.34h0a11.34,11.34,0,0,1-11.34-11.34V17.774a29.63,29.63,0,1,0,22.68,0Z" transform="translate(-10.446 -17.774)" fill="#535e8a"/></g><g transform="translate(2.438 4.148)"><path d="M87.8,298.888V250.237l-3.7-.094v45.643" transform="translate(-66.912 -195.908)" fill="#323b5b"/><path d="M31.385,72.074a29.634,29.634,0,0,1-2.649-52.45V17.773a29.64,29.64,0,0,0,2.6,55.7Z" transform="translate(-10.446 -17.773)" fill="#323b5b"/></g><rect width="9.876" height="53.041" transform="translate(84.623 41.457)" fill="#ededed"/><rect width="3.621" height="53.041" transform="translate(84.623 41.457)" fill="#bdbdbd"/><path d="M359.079,48.694l-7.194-24.142h-7.194L337.5,48.694l5.853,12.315h9.877Z" transform="translate(-258.726 -18.821)" fill="#ededed"/><path d="M342.361,425.562A59.636,59.636,0,0,1,313.2,441.831v-7.648a11.763,11.763,0,0,1,11.762-11.762h9.4A11.726,11.726,0,0,1,342.361,425.562Z" transform="translate(-240.098 -323.829)" fill="#ff4f6f"/><path d="M332.581,422.421a11.761,11.761,0,0,0-11.762,11.762v5.36a58.828,58.828,0,0,1-7.621,2.288v-7.648a11.763,11.763,0,0,1,11.762-11.762Z" transform="translate(-240.098 -323.829)" fill="#e33958"/><path d="M346.971,61.008l-7.2-12.612,5.772-21.705h6.977l-.638-2.14h-7.194L337.5,48.694l5.853,12.315,2.224,1.4Z" transform="translate(-258.726 -18.821)" fill="#bdbdbd"/><path d="M342.466,403.615H316.859a3.658,3.658,0,0,1-3.658-3.658h0a3.658,3.658,0,0,1,3.658-3.658h25.607a3.658,3.658,0,0,1,3.658,3.658h0A3.658,3.658,0,0,1,342.466,403.615Z" transform="translate(-240.1 -303.803)" fill="#ff4f6f"/><path d="M321.006,399.957a3.658,3.658,0,0,1,3.658-3.658h-7.8a3.658,3.658,0,0,0,0,7.316h7.8A3.658,3.658,0,0,1,321.006,399.957Z" transform="translate(-240.1 -303.803)" fill="#e33958"/></svg>