<svg xmlns="http://www.w3.org/2000/svg" xmlns:xlink="http://www.w3.org/1999/xlink" width="275" height="275" viewBox="0 0 275 275"><defs><filter id="a" x="0" y="0" width="275" height="275" filterUnits="userSpaceOnUse"><feOffset input="SourceAlpha"/><feGaussianBlur stdDeviation="12.5" result="b"/><feFlood flood-opacity="0.161"/><feComposite operator="in" in2="b"/><feComposite in="SourceGraphic"/></filter><filter id="c" x="45.5" y="45.5" width="183" height="183" filterUnits="userSpaceOnUse"><feOffset input="SourceAlpha"/><feGaussianBlur stdDeviation="5" result="d"/><feFlood flood-opacity="0.161"/><feComposite operator="in" in2="d"/><feComposite in="SourceGraphic"/></filter></defs><g transform="translate(-351.5 -2101.5)"><g transform="translate(-67 -160)"><g transform="translate(455.912 2299)"><g transform="matrix(1, 0, 0, 1, -37.41, -37.5)" filter="url(#a)"><circle cx="100" cy="100" r="100" transform="translate(37.5 37.5)" fill="#44b359"/></g><g transform="matrix(1, 0, 0, 1, -37.41, -37.5)" filter="url(#c)"><circle cx="76.5" cy="76.5" r="76.5" transform="translate(60.5 60.5)" fill="#fafafa"/></g></g></g><g transform="translate(448.144 2196.666)"><path d="M97.2,143.923l.772-1.26L97.2,141.4a46.407,46.407,0,0,0-9.271-10.249,41.812,41.812,0,0,0-54.761-.005,46.854,46.854,0,0,0-9.342,10.244l-.789,1.272.789,1.272a46.855,46.855,0,0,0,9.342,10.244,41.812,41.812,0,0,0,54.761-.005,46.385,46.385,0,0,0,9.271-10.25ZM84.715,150.57a36.975,36.975,0,0,1-48.342-.006,45.531,45.531,0,0,1-7.558-7.9,45.534,45.534,0,0,1,7.558-7.9,36.975,36.975,0,0,1,48.342-.006,44.937,44.937,0,0,1,7.5,7.908A44.947,44.947,0,0,1,84.715,150.57Zm0,0" transform="translate(-19.333 -101.485)" fill="#44b359"/><path d="M180.365,165.867a14.5,14.5,0,1,0,14.5,14.5A14.514,14.514,0,0,0,180.365,165.867Zm0,24.171a9.672,9.672,0,1,1,9.672-9.672A9.684,9.684,0,0,1,180.365,190.038Zm0,0" transform="translate(-139.187 -139.187)" fill="#44b359"/><path d="M4.826,4.826H14.9V0H0V14.718H4.826Zm0,0" fill="#44b359"/><path d="M419.375,0V4.826h10.073v9.892h4.826V0Zm0,0" transform="translate(-351.918)" fill="#44b359"/><path d="M4.826,420.5H0v14.718H14.9v-4.826H4.826Zm0,0" transform="translate(0 -352.862)" fill="#44b359"/><path d="M429.448,430.392H419.375v4.826h14.9V420.5h-4.826Zm0,0" transform="translate(-351.918 -352.862)" fill="#44b359"/></g></g></svg>