<svg xmlns="http://www.w3.org/2000/svg" xmlns:xlink="http://www.w3.org/1999/xlink" width="275" height="275" viewBox="0 0 275 275"><defs><filter id="a" x="0" y="0" width="275" height="275" filterUnits="userSpaceOnUse"><feOffset input="SourceAlpha"/><feGaussianBlur stdDeviation="12.5" result="b"/><feFlood flood-opacity="0.161"/><feComposite operator="in" in2="b"/><feComposite in="SourceGraphic"/></filter><filter id="c" x="45.5" y="45.5" width="183" height="183" filterUnits="userSpaceOnUse"><feOffset input="SourceAlpha"/><feGaussianBlur stdDeviation="5" result="d"/><feFlood flood-opacity="0.161"/><feComposite operator="in" in2="d"/><feComposite in="SourceGraphic"/></filter></defs><g transform="translate(-693.5 -2101.5)"><g transform="translate(-54 -160)"><g transform="translate(784.825 2299)"><g transform="matrix(1, 0, 0, 1, -37.32, -37.5)" filter="url(#a)"><circle cx="100" cy="100" r="100" transform="translate(37.5 37.5)" fill="#44b359"/></g><g transform="matrix(1, 0, 0, 1, -37.32, -37.5)" filter="url(#c)"><path d="M76.5,0A76.5,76.5,0,1,1,0,76.5,76.5,76.5,0,0,1,76.5,0Z" transform="translate(60.5 60.5)" fill="#fafafa"/></g></g></g><g transform="translate(785.993 2198.47)"><g transform="translate(0 33.171)"><path d="M77.955,236.543h-8.94a13.343,13.343,0,0,0-3.516.472,13.39,13.39,0,0,0-11.93-7.335h-15.8a13.39,13.39,0,0,0-11.93,7.335,13.343,13.343,0,0,0-3.516-.472h-8.94A13.394,13.394,0,0,0,0,249.922v14.292a8.037,8.037,0,0,0,8.027,8.027h75.28a8.037,8.037,0,0,0,8.027-8.027V249.922A13.394,13.394,0,0,0,77.955,236.543Zm-53.569,6.517V266.89H8.027a2.679,2.679,0,0,1-2.676-2.676V249.922a8.037,8.037,0,0,1,8.027-8.027h8.94a8,8,0,0,1,2.1.28C24.4,242.468,24.386,242.762,24.386,243.059ZM61.6,266.89H29.738V243.059a8.037,8.037,0,0,1,8.027-8.027h15.8a8.037,8.037,0,0,1,8.027,8.027Zm24.386-2.676a2.679,2.679,0,0,1-2.676,2.676H66.948V243.059c0-.3-.013-.592-.032-.884a8.009,8.009,0,0,1,2.1-.28h8.94a8.037,8.037,0,0,1,8.027,8.027Z" transform="translate(0 -229.68)" fill="#44b359"/></g><g transform="translate(5.961 14.766)"><path d="M45.3,126.5a11.889,11.889,0,1,0,11.889,11.889A11.9,11.9,0,0,0,45.3,126.5Zm0,18.426a6.537,6.537,0,1,1,6.537-6.537A6.545,6.545,0,0,1,45.3,144.93Z" transform="translate(-33.414 -126.504)" fill="#44b359"/></g><g transform="translate(29.784 0)"><path d="M182.845,43.729a15.883,15.883,0,1,0,15.883,15.883A15.9,15.9,0,0,0,182.845,43.729Zm0,26.415a10.532,10.532,0,1,1,10.532-10.532A10.543,10.543,0,0,1,182.845,70.144Z" transform="translate(-166.962 -43.729)" fill="#44b359"/></g><g transform="translate(61.596 14.766)"><path d="M357.183,126.5a11.889,11.889,0,1,0,11.889,11.889A11.9,11.9,0,0,0,357.183,126.5Zm0,18.426a6.537,6.537,0,1,1,6.537-6.537A6.545,6.545,0,0,1,357.183,144.93Z" transform="translate(-345.294 -126.504)" fill="#44b359"/></g></g></g></svg>