<svg xmlns="http://www.w3.org/2000/svg" xmlns:xlink="http://www.w3.org/1999/xlink" width="274" height="275" viewBox="0 0 274 275"><defs><filter id="a" x="0" y="0" width="274" height="275" filterUnits="userSpaceOnUse"><feOffset input="SourceAlpha"/><feGaussianBlur stdDeviation="12.5" result="b"/><feFlood flood-opacity="0.161"/><feComposite operator="in" in2="b"/><feComposite in="SourceGraphic"/></filter><filter id="c" x="45.5" y="45.5" width="183" height="183" filterUnits="userSpaceOnUse"><feOffset input="SourceAlpha"/><feGaussianBlur stdDeviation="5" result="d"/><feFlood flood-opacity="0.161"/><feComposite operator="in" in2="d"/><feComposite in="SourceGraphic"/></filter></defs><g transform="translate(-1033.5 -2101.5)"><g transform="translate(-26 -160)"><g transform="translate(1096.737 2299)"><g transform="matrix(1, 0, 0, 1, -37.24, -37.5)" filter="url(#a)"><ellipse cx="99.5" cy="100" rx="99.5" ry="100" transform="translate(37.5 37.5)" fill="#44b359"/></g><g transform="matrix(1, 0, 0, 1, -37.24, -37.5)" filter="url(#c)"><path d="M76.5,0A76.5,76.5,0,1,1,0,76.5,76.5,76.5,0,0,1,76.5,0Z" transform="translate(60.5 60.5)" fill="#fafafa"/></g></g></g><g transform="translate(1129.06 2194)"><path d="M78.687,23.139a3.664,3.664,0,0,0-1.7,4.893A36.269,36.269,0,0,1,80.612,43.97,36.642,36.642,0,1,1,43.97,7.328a36.2,36.2,0,0,1,22.747,7.905A3.664,3.664,0,1,0,71.277,9.5,43.976,43.976,0,1,0,87.941,43.97a43.521,43.521,0,0,0-4.36-19.129,3.66,3.66,0,0,0-4.893-1.7Zm0,0" transform="translate(0 0)" fill="#44b359"/><path d="M179.664,64A3.666,3.666,0,0,0,176,67.664V93.313a3.666,3.666,0,0,0,3.664,3.664h18.321a3.664,3.664,0,1,0,0-7.328H183.328V67.664A3.666,3.666,0,0,0,179.664,64Zm0,0" transform="translate(-135.694 -49.343)" fill="#44b359"/></g></g></svg>