<svg xmlns="http://www.w3.org/2000/svg" width="14.912" height="18.105" viewBox="0 0 14.912 18.105"><g transform="translate(-1306.067 -2996.145)"><path d="M9.323.17a.443.443,0,0,0-.7,0,.637.637,0,0,0,0,.8l3.538,4.1H.488A.529.529,0,0,0,0,5.638a.536.536,0,0,0,.488.574H12.163L8.625,10.3a.649.649,0,0,0,0,.809.443.443,0,0,0,.7,0L13.7,6.042a.62.62,0,0,0,0-.8Z" transform="translate(1307.762 3010.283) rotate(-90)" fill="#d5d5d5" stroke="#d5d5d5" stroke-width="0.5"/><path d="M0,0H14.912" transform="translate(1306.067 3013.5)" fill="none" stroke="#d5d5d5" stroke-width="1.5"/></g></svg>